# WaveFront *.obj file (generated by Autodesk ATF)

mtllib top-fill-2.mtl

g top-fill-2

v 105.500002 98.700001 5.100000
v 105.475941 99.097772 5.100000
v 105.404110 99.489743 5.100000
v 105.285555 99.870197 5.100000
v 105.122006 100.233587 5.100000
v 104.915848 100.574614 5.100000
v 104.670087 100.888306 5.100000
v 104.388306 101.170086 5.100000
v 104.074615 101.415848 5.100000
v 103.733588 101.622006 5.100000
v 103.370198 101.785554 5.100000
v 102.989743 101.904109 5.100000
v 102.597773 101.975940 5.100000
v 102.200002 102.000001 5.100000
v 102.200002 102.000001 5.700000
v 102.597773 101.975940 5.700000
v 102.989743 101.904109 5.700000
v 103.370198 101.785554 5.700000
v 103.733588 101.622006 5.700000
v 104.074615 101.415848 5.700000
v 104.388306 101.170086 5.700000
v 104.670087 100.888306 5.700000
v 104.915848 100.574614 5.700000
v 105.122006 100.233587 5.700000
v 105.285555 99.870197 5.700000
v 105.404110 99.489743 5.700000
v 105.475941 99.097772 5.700000
v 105.500002 98.700001 5.700000
v 105.500002 64.800001 5.700000
v 105.500002 64.800001 5.100000
v 98.900002 102.000001 5.700000
v 98.900002 61.500001 5.700000
v 102.200002 61.500001 5.700000
v 102.597773 61.524062 5.700000
v 102.989743 61.595893 5.700000
v 103.370198 61.714447 5.700000
v 103.733588 61.877996 5.700000
v 104.074615 62.084154 5.700000
v 104.388306 62.329915 5.700000
v 104.670087 62.611696 5.700000
v 104.915848 62.925387 5.700000
v 105.122006 63.266414 5.700000
v 105.285555 63.629805 5.700000
v 105.404110 64.010259 5.700000
v 105.475941 64.402230 5.700000
v 102.200002 61.500001 5.100000
v 102.597773 61.524062 5.100000
v 102.989743 61.595893 5.100000
v 103.370198 61.714447 5.100000
v 103.733588 61.877996 5.100000
v 104.074615 62.084154 5.100000
v 104.388306 62.329915 5.100000
v 104.670087 62.611696 5.100000
v 104.915848 62.925387 5.100000
v 105.122006 63.266414 5.100000
v 105.285555 63.629805 5.100000
v 105.404110 64.010259 5.100000
v 105.475941 64.402230 5.100000
v 98.900002 61.500001 5.100000
v 98.900002 102.000001 5.100000
vt -0.000000 0.259181 0.000000
vt -0.060000 0.259181 0.000000
vt -0.000000 0.219307 0.000000
vt -0.060000 0.219307 0.000000
vt -0.000000 0.179433 0.000000
vt -0.060000 0.179433 0.000000
vt -0.000000 0.139559 0.000000
vt -0.060000 0.139559 0.000000
vt -0.000000 0.099685 0.000000
vt -0.060000 0.099685 0.000000
vt -0.000000 0.059811 0.000000
vt -0.060000 0.059811 0.000000
vt -0.000000 0.019937 0.000000
vt -0.060000 0.019937 0.000000
vt -0.000000 -0.019937 0.000000
vt -0.060000 -0.019937 0.000000
vt -0.000000 -0.059811 0.000000
vt -0.060000 -0.059811 0.000000
vt -0.000000 -0.099685 0.000000
vt -0.060000 -0.099685 0.000000
vt -0.000000 -0.139559 0.000000
vt -0.060000 -0.139559 0.000000
vt -0.000000 -0.179433 0.000000
vt -0.060000 -0.179433 0.000000
vt -0.000000 -0.219307 0.000000
vt -0.060000 -0.219307 0.000000
vt -0.000000 -0.259181 0.000000
vt -0.060000 -0.259181 0.000000
vt 0.330000 0.000000 0.000000
vt 3.720000 0.000000 0.000000
vt 0.330000 0.060000 0.000000
vt 3.720000 0.060000 0.000000
vt -0.327594 -1.734777 0.000000
vt -0.320411 -1.773974 0.000000
vt -0.330000 -1.695000 0.000000
vt -0.308555 -1.812020 0.000000
vt -0.292200 -1.848359 0.000000
vt -0.271585 -1.882461 0.000000
vt -0.247009 -1.913830 0.000000
vt -0.218830 -1.942009 0.000000
vt -0.187461 -1.966585 0.000000
vt -0.187461 1.966585 0.000000
vt -0.218830 1.942009 0.000000
vt -0.330000 1.695000 0.000000
vt -0.247009 1.913830 0.000000
vt -0.271585 1.882461 0.000000
vt -0.153359 1.987200 0.000000
vt -0.153359 -1.987200 0.000000
vt -0.117020 2.003555 0.000000
vt -0.117020 -2.003555 0.000000
vt -0.078974 2.015411 0.000000
vt -0.078974 -2.015411 0.000000
vt -0.039777 2.022594 0.000000
vt -0.039777 -2.022594 0.000000
vt -0.000000 2.025000 0.000000
vt 0.000000 -2.025000 0.000000
vt 0.330000 -2.025000 0.000000
vt 0.330000 2.025000 0.000000
vt -0.292200 1.848359 0.000000
vt -0.308555 1.812020 0.000000
vt -0.320411 1.773974 0.000000
vt -0.327594 1.734777 0.000000
vt -0.000000 0.259181 0.000000
vt -0.060000 0.259181 0.000000
vt -0.000000 0.219307 0.000000
vt -0.060000 0.219307 0.000000
vt -0.000000 0.179433 0.000000
vt -0.060000 0.179433 0.000000
vt -0.000000 0.139559 0.000000
vt -0.060000 0.139559 0.000000
vt -0.000000 0.099685 0.000000
vt -0.060000 0.099685 0.000000
vt -0.000000 0.059811 0.000000
vt -0.060000 0.059811 0.000000
vt -0.000000 0.019937 0.000000
vt -0.060000 0.019937 0.000000
vt -0.000000 -0.019937 0.000000
vt -0.060000 -0.019937 0.000000
vt -0.000000 -0.059811 0.000000
vt -0.060000 -0.059811 0.000000
vt -0.000000 -0.099685 0.000000
vt -0.060000 -0.099685 0.000000
vt -0.000000 -0.139559 0.000000
vt -0.060000 -0.139559 0.000000
vt -0.000000 -0.179433 0.000000
vt -0.060000 -0.179433 0.000000
vt -0.000000 -0.219307 0.000000
vt -0.060000 -0.219307 0.000000
vt -0.000000 -0.259181 0.000000
vt -0.060000 -0.259181 0.000000
vt 0.330000 0.000000 0.000000
vt 0.660000 0.000000 0.000000
vt 0.330000 0.060000 0.000000
vt 0.660000 0.060000 0.000000
vt 0.330000 0.060000 0.000000
vt 0.000000 0.060000 0.000000
vt 0.330000 0.000000 0.000000
vt 0.000000 0.000000 0.000000
vt 0.000000 0.000000 0.000000
vt 4.050000 0.000000 0.000000
vt 0.000000 0.060000 0.000000
vt 4.050000 0.060000 0.000000
vt -0.039777 2.022594 0.000000
vt -0.039777 -2.022594 0.000000
vt 0.000000 2.025000 0.000000
vt -0.000000 -2.025000 0.000000
vt 0.330000 -2.025000 0.000000
vt -0.078974 -2.015411 0.000000
vt -0.078974 2.015411 0.000000
vt -0.117020 -2.003555 0.000000
vt -0.117020 2.003555 0.000000
vt -0.153359 -1.987200 0.000000
vt -0.153359 1.987200 0.000000
vt -0.187461 -1.966585 0.000000
vt -0.187461 1.966585 0.000000
vt -0.218830 -1.942009 0.000000
vt -0.218830 1.942009 0.000000
vt -0.330000 -1.695000 0.000000
vt -0.330000 1.695000 0.000000
vt -0.247009 1.913830 0.000000
vt -0.271585 1.882461 0.000000
vt -0.292200 1.848359 0.000000
vt -0.308555 1.812020 0.000000
vt -0.320411 1.773974 0.000000
vt -0.327594 1.734777 0.000000
vt -0.327594 -1.734777 0.000000
vt -0.320411 -1.773974 0.000000
vt -0.308555 -1.812020 0.000000
vt -0.292200 -1.848359 0.000000
vt -0.271585 -1.882461 0.000000
vt -0.247009 -1.913830 0.000000
vt 0.330000 2.025000 0.000000
vn 0.100000 -0.000000 0.000000
vn 0.100000 -0.000000 0.000000
vn 0.099271 0.012054 0.000000
vn 0.099271 0.012054 0.000000
vn 0.097094 0.023932 0.000000
vn 0.097094 0.023932 0.000000
vn 0.093502 0.035460 0.000000
vn 0.093502 0.035460 0.000000
vn 0.088546 0.046472 0.000000
vn 0.088546 0.046472 0.000000
vn 0.082298 0.056806 0.000000
vn 0.082298 0.056806 0.000000
vn 0.074851 0.066312 0.000000
vn 0.074851 0.066312 0.000000
vn 0.066312 0.074851 0.000000
vn 0.066312 0.074851 0.000000
vn 0.056806 0.082298 0.000000
vn 0.056806 0.082298 0.000000
vn 0.046472 0.088546 0.000000
vn 0.046472 0.088546 0.000000
vn 0.035460 0.093502 0.000000
vn 0.035460 0.093502 0.000000
vn 0.023932 0.097094 0.000000
vn 0.023932 0.097094 0.000000
vn 0.012054 0.099271 0.000000
vn 0.012054 0.099271 0.000000
vn -0.000000 0.100000 -0.000000
vn -0.000000 0.100000 -0.000000
vn 0.100000 -0.000000 0.000000
vn 0.100000 -0.000000 0.000000
vn 0.000000 0.000000 0.100000
vn 0.000000 0.000000 0.100000
vn 0.000000 0.000000 0.100000
vn 0.000000 0.000000 0.100000
vn 0.000000 0.000000 0.100000
vn 0.000000 0.000000 0.100000
vn 0.000000 0.000000 0.100000
vn 0.000000 0.000000 0.100000
vn 0.000000 0.000000 0.100000
vn 0.000000 0.000000 0.100000
vn 0.000000 0.000000 0.100000
vn 0.000000 0.000000 0.100000
vn 0.000000 0.000000 0.100000
vn 0.000000 0.000000 0.100000
vn 0.000000 0.000000 0.100000
vn 0.000000 0.000000 0.100000
vn 0.000000 0.000000 0.100000
vn 0.000000 0.000000 0.100000
vn 0.000000 0.000000 0.100000
vn 0.000000 0.000000 0.100000
vn 0.000000 0.000000 0.100000
vn 0.000000 0.000000 0.100000
vn 0.000000 0.000000 0.100000
vn 0.000000 0.000000 0.100000
vn 0.000000 0.000000 0.100000
vn 0.000000 0.000000 0.100000
vn 0.000000 0.000000 0.100000
vn 0.000000 0.000000 0.100000
vn 0.000000 0.000000 0.100000
vn 0.000000 0.000000 0.100000
vn 0.000000 -0.100000 0.000000
vn 0.000000 -0.100000 0.000000
vn 0.012054 -0.099271 0.000000
vn 0.012054 -0.099271 0.000000
vn 0.023932 -0.097094 0.000000
vn 0.023932 -0.097094 0.000000
vn 0.035460 -0.093502 0.000000
vn 0.035460 -0.093502 0.000000
vn 0.046472 -0.088546 0.000000
vn 0.046472 -0.088546 0.000000
vn 0.056806 -0.082298 0.000000
vn 0.056806 -0.082298 0.000000
vn 0.066312 -0.074851 0.000000
vn 0.066312 -0.074851 0.000000
vn 0.074851 -0.066312 0.000000
vn 0.074851 -0.066312 0.000000
vn 0.082298 -0.056806 0.000000
vn 0.082298 -0.056806 0.000000
vn 0.088546 -0.046472 0.000000
vn 0.088546 -0.046472 0.000000
vn 0.093502 -0.035460 0.000000
vn 0.093502 -0.035460 0.000000
vn 0.097094 -0.023932 0.000000
vn 0.097094 -0.023932 0.000000
vn 0.099271 -0.012054 0.000000
vn 0.099271 -0.012054 0.000000
vn 0.000000 -0.100000 0.000000
vn 0.000000 -0.100000 0.000000
vn 0.000000 0.100000 0.000000
vn 0.000000 0.100000 0.000000
vn -0.100000 0.000000 0.000000
vn -0.100000 0.000000 0.000000
vn -0.100000 0.000000 0.000000
vn -0.100000 0.000000 0.000000
vn 0.000000 0.000000 -0.100000
vn 0.000000 0.000000 -0.100000
vn 0.000000 0.000000 -0.100000
vn 0.000000 0.000000 -0.100000
vn 0.000000 0.000000 -0.100000
vn 0.000000 0.000000 -0.100000
vn 0.000000 0.000000 -0.100000
vn 0.000000 0.000000 -0.100000
vn 0.000000 0.000000 -0.100000
vn 0.000000 0.000000 -0.100000
vn 0.000000 0.000000 -0.100000
vn 0.000000 0.000000 -0.100000
vn 0.000000 0.000000 -0.100000
vn 0.000000 0.000000 -0.100000
vn 0.000000 0.000000 -0.100000
vn 0.000000 0.000000 -0.100000
vn 0.000000 0.000000 -0.100000
vn 0.000000 0.000000 -0.100000
vn 0.000000 0.000000 -0.100000
vn 0.000000 0.000000 -0.100000
vn 0.000000 0.000000 -0.100000
vn 0.000000 0.000000 -0.100000
vn 0.000000 0.000000 -0.100000
vn 0.000000 0.000000 -0.100000
vn 0.000000 0.000000 -0.100000
vn 0.000000 0.000000 -0.100000
vn 0.000000 0.000000 -0.100000
vn 0.000000 0.000000 -0.100000
vn 0.000000 0.000000 -0.100000
vn 0.000000 0.000000 -0.100000
usemtl Plastic_-_Matte_(Black)_(2)
f 28/1/1 1/2/2 27/3/3
f 27/3/3 1/2/2 2/4/4
f 27/3/3 2/4/4 26/5/5
f 26/5/5 2/4/4 3/6/6
f 26/5/5 3/6/6 25/7/7
f 25/7/7 3/6/6 4/8/8
f 25/7/7 4/8/8 24/9/9
f 24/9/9 4/8/8 5/10/10
f 24/9/9 5/10/10 23/11/11
f 23/11/11 5/10/10 6/12/12
f 23/11/11 6/12/12 22/13/13
f 22/13/13 6/12/12 7/14/14
f 22/13/13 7/14/14 21/15/15
f 21/15/15 7/14/14 8/16/16
f 21/15/15 8/16/16 20/17/17
f 20/17/17 8/16/16 9/18/18
f 20/17/17 9/18/18 19/19/19
f 19/19/19 9/18/18 10/20/20
f 19/19/19 10/20/20 18/21/21
f 18/21/21 10/20/20 11/22/22
f 18/21/21 11/22/22 17/23/23
f 17/23/23 11/22/22 12/24/24
f 17/23/23 12/24/24 16/25/25
f 16/25/25 12/24/24 13/26/26
f 16/25/25 13/26/26 15/27/27
f 15/27/27 13/26/26 14/28/28
f 28/29/1 29/30/29 1/31/2
f 1/31/2 29/30/29 30/32/30
f 27/33/31 26/34/32 28/35/33
f 28/35/33 26/34/32 25/36/34
f 28/35/33 25/36/34 24/37/35
f 24/37/35 23/38/36 28/35/33
f 28/35/33 23/38/36 22/39/37
f 28/35/33 22/39/37 21/40/38
f 20/41/39 38/42/40 21/40/38
f 21/40/38 38/42/40 39/43/41
f 21/40/38 39/43/41 28/35/33
f 28/35/33 39/43/41 29/44/42
f 29/44/42 39/43/41 40/45/43
f 29/44/42 40/45/43 41/46/44
f 38/42/40 20/41/39 37/47/45
f 37/47/45 20/41/39 19/48/46
f 37/47/45 19/48/46 36/49/47
f 36/49/47 19/48/46 18/50/48
f 36/49/47 18/50/48 35/51/49
f 35/51/49 18/50/48 17/52/50
f 35/51/49 17/52/50 34/53/51
f 34/53/51 17/52/50 16/54/52
f 34/53/51 16/54/52 33/55/53
f 33/55/53 16/54/52 15/56/54
f 33/55/53 15/56/54 31/57/55
f 31/57/55 32/58/56 33/55/53
f 41/46/44 42/59/57 29/44/42
f 29/44/42 42/59/57 43/60/58
f 29/44/42 43/60/58 44/61/59
f 44/61/59 45/62/60 29/44/42
f 33/63/61 46/64/62 34/65/63
f 34/65/63 46/64/62 47/66/64
f 34/65/63 47/66/64 35/67/65
f 35/67/65 47/66/64 48/68/66
f 35/67/65 48/68/66 36/69/67
f 36/69/67 48/68/66 49/70/68
f 36/69/67 49/70/68 37/71/69
f 37/71/69 49/70/68 50/72/70
f 37/71/69 50/72/70 38/73/71
f 38/73/71 50/72/70 51/74/72
f 38/73/71 51/74/72 39/75/73
f 39/75/73 51/74/72 52/76/74
f 39/75/73 52/76/74 40/77/75
f 40/77/75 52/76/74 53/78/76
f 40/77/75 53/78/76 41/79/77
f 41/79/77 53/78/76 54/80/78
f 41/79/77 54/80/78 42/81/79
f 42/81/79 54/80/78 55/82/80
f 42/81/79 55/82/80 43/83/81
f 43/83/81 55/82/80 56/84/82
f 43/83/81 56/84/82 44/85/83
f 44/85/83 56/84/82 57/86/84
f 44/85/83 57/86/84 45/87/85
f 45/87/85 57/86/84 58/88/86
f 45/87/85 58/88/86 29/89/29
f 29/89/29 58/88/86 30/90/30
f 33/91/61 32/92/87 46/93/62
f 46/93/62 32/92/87 59/94/88
f 14/95/28 60/96/89 15/97/27
f 15/97/27 60/96/89 31/98/90
f 32/99/91 31/100/92 59/101/93
f 59/101/93 31/100/92 60/102/94
f 13/103/95 47/104/96 14/105/97
f 14/105/97 47/104/96 46/106/98
f 14/105/97 46/106/98 59/107/99
f 47/104/96 13/103/95 48/108/100
f 48/108/100 13/103/95 12/109/101
f 48/108/100 12/109/101 49/110/102
f 49/110/102 12/109/101 11/111/103
f 49/110/102 11/111/103 50/112/104
f 50/112/104 11/111/103 10/113/105
f 50/112/104 10/113/105 51/114/106
f 51/114/106 10/113/105 9/115/107
f 51/114/106 9/115/107 52/116/108
f 52/116/108 9/115/107 8/117/109
f 52/116/108 8/117/109 30/118/110
f 30/118/110 8/117/109 1/119/111
f 1/119/111 8/117/109 7/120/112
f 1/119/111 7/120/112 6/121/113
f 6/121/113 5/122/114 1/119/111
f 1/119/111 5/122/114 4/123/115
f 1/119/111 4/123/115 3/124/116
f 3/124/116 2/125/117 1/119/111
f 58/126/118 57/127/119 30/118/110
f 30/118/110 57/127/119 56/128/120
f 30/118/110 56/128/120 55/129/121
f 55/129/121 54/130/122 30/118/110
f 30/118/110 54/130/122 53/131/123
f 30/118/110 53/131/123 52/116/108
f 59/107/99 60/132/124 14/105/97
# 60 vertices
# 132 texture params
# 124 normals
# 116 facets

# 1 groups
